<?xml version="1.0" encoding="UTF-8" standalone="no"?>
<!-- Created with Inkscape (http://www.inkscape.org/) -->

<svg
   width="24.785896mm"
   height="24.774807mm"
   viewBox="0 0 24.785896 24.774807"
   version="1.1"
   id="svg1"
   xml:space="preserve"
   inkscape:version="1.3.2 (091e20e, 2023-11-25)"
   sodipodi:docname="ui-icon-dark.svg"
   xmlns:inkscape="http://www.inkscape.org/namespaces/inkscape"
   xmlns:sodipodi="http://sodipodi.sourceforge.net/DTD/sodipodi-0.dtd"
   xmlns:xlink="http://www.w3.org/1999/xlink"
   xmlns="http://www.w3.org/2000/svg"
   xmlns:svg="http://www.w3.org/2000/svg"><sodipodi:namedview
     id="namedview1"
     pagecolor="#000000"
     bordercolor="#000000"
     borderopacity="0.25"
     inkscape:showpageshadow="2"
     inkscape:pageopacity="0.0"
     inkscape:pagecheckerboard="0"
     inkscape:deskcolor="#d1d1d1"
     inkscape:document-units="mm"
     inkscape:zoom="1.6363231"
     inkscape:cx="-32.38969"
     inkscape:cy="51.640167"
     inkscape:window-width="1512"
     inkscape:window-height="916"
     inkscape:window-x="0"
     inkscape:window-y="38"
     inkscape:window-maximized="0"
     inkscape:current-layer="layer1" /><defs
     id="defs1"><linearGradient
       id="linearGradient13"
       inkscape:collect="always"><stop
         style="stop-color:#1991db;stop-opacity:1;"
         offset="0"
         id="stop23" /><stop
         style="stop-color:#6636dc;stop-opacity:0.95855856;"
         offset="1"
         id="stop24" /></linearGradient><rect
       x="24.51882"
       y="16.856688"
       width="580.78955"
       height="185.42357"
       id="rect1" /><linearGradient
       id="_Linear1"
       x1="0"
       y1="0"
       x2="1"
       y2="0"
       gradientUnits="userSpaceOnUse"
       gradientTransform="matrix(1,0,0,-1,0,-6.50515e-4)"><stop
         offset="0"
         style="stop-color:rgb(247,76,0);stop-opacity:1"
         id="stop12" /><stop
         offset="0.33"
         style="stop-color:rgb(247,76,0);stop-opacity:1"
         id="stop13" /><stop
         offset="1"
         style="stop-color:rgb(244,150,0);stop-opacity:1"
         id="stop14" /></linearGradient><linearGradient
       id="_Linear2"
       x1="0"
       y1="0"
       x2="1"
       y2="0"
       gradientUnits="userSpaceOnUse"
       gradientTransform="matrix(1,0,0,-1,0,1.23438e-6)"><stop
         offset="0"
         style="stop-color:rgb(204,58,0);stop-opacity:1"
         id="stop15" /><stop
         offset="0.15"
         style="stop-color:rgb(204,58,0);stop-opacity:1"
         id="stop16" /><stop
         offset="0.74"
         style="stop-color:rgb(247,76,0);stop-opacity:1"
         id="stop17" /><stop
         offset="1"
         style="stop-color:rgb(247,76,0);stop-opacity:1"
         id="stop18" /></linearGradient><linearGradient
       id="_Linear3"
       x1="0"
       y1="0"
       x2="1"
       y2="0"
       gradientUnits="userSpaceOnUse"
       gradientTransform="scale(1,-1)"><stop
         offset="0"
         style="stop-color:rgb(204,58,0);stop-opacity:1"
         id="stop19" /><stop
         offset="0.15"
         style="stop-color:rgb(204,58,0);stop-opacity:1"
         id="stop20" /><stop
         offset="0.74"
         style="stop-color:rgb(247,76,0);stop-opacity:1"
         id="stop21" /><stop
         offset="1"
         style="stop-color:rgb(247,76,0);stop-opacity:1"
         id="stop22" /></linearGradient><linearGradient
       inkscape:collect="always"
       xlink:href="#linearGradient13"
       id="linearGradient24"
       x1="26348.875"
       y1="12452.575"
       x2="27117.955"
       y2="11224.043"
       gradientUnits="userSpaceOnUse" /><linearGradient
       inkscape:collect="always"
       xlink:href="#linearGradient13"
       id="linearGradient25"
       gradientUnits="userSpaceOnUse"
       x1="26348.875"
       y1="12452.575"
       x2="27117.955"
       y2="11224.043" /><rect
       x="24.51882"
       y="16.856688"
       width="580.78955"
       height="185.42357"
       id="rect2" /></defs><g
     inkscape:label="Layer 1"
     inkscape:groupmode="layer"
     id="layer1"
     transform="translate(-41.178438,-3.7500687)"><g
       transform="matrix(0.0145923,0,0,-0.0145923,-332.17691,190.06438)"
       fill="#000000"
       stroke="none"
       id="g61"
       style="fill:url(#linearGradient24);fill-opacity:1"><path
         id="path1"
         style="fill:url(#linearGradient25);fill-opacity:1;stroke-width:0.133064"
         d="m 26390.814,12767.988 -10.12,-0.132 c -5.589,-0.133 -11.036,-0.396 -12.101,-0.529 -1.065,-0.266 -9.979,-1.202 -19.559,-2.001 l -17.709,-1.586 v -3.606 c -0.399,-21.291 -3.325,-51.746 -5.72,-60.263 -1.597,-5.455 -1.997,-5.733 -8.251,-6.797 -3.726,-0.532 -14.901,-2.518 -25.147,-4.247 -17.564,-3.194 -18.49,-3.339 -20.22,-1.077 -3.592,4.79 -16.369,30.605 -21.825,44.31 -3.06,7.718 -5.981,14.383 -6.513,14.915 -0.399,0.533 -11.054,-1.734 -23.429,-4.927 -32.069,-8.516 -33.926,-9.051 -33.926,-10.648 0,-0.666 0.936,-7.051 2.133,-13.971 1.065,-6.919 2.262,-21.955 2.794,-33.265 l 0.793,-20.636 -13.178,-4.512 c -7.318,-2.528 -18.214,-6.648 -24.467,-9.043 l -11.328,-4.532 -5.721,6.382 c -4.657,5.189 -27.013,37.538 -33.001,47.784 -1.463,2.395 -1.723,2.38 -9.308,-0.68 -4.258,-1.73 -16.504,-7.31 -27.016,-12.234 -15.568,-7.452 -18.883,-9.577 -18.351,-11.44 0.266,-1.331 2.794,-9.588 5.589,-18.37 5.721,-18.895 9.834,-36.733 9.968,-43.253 0,-4.391 -0.517,-4.921 -7.702,-8.647 -4.125,-2.129 -13.843,-7.709 -21.561,-12.366 -12.773,-7.718 -14.234,-8.261 -17.161,-6.664 -3.46,1.862 -29.946,27.558 -40.591,39.401 l -6.381,7.042 -8.798,-5.588 c -7.718,-4.923 -22.222,-15.034 -35.928,-25.148 l -4.247,-3.058 9.175,-17.426 c 9.713,-18.363 18.766,-39.918 18.766,-44.31 0,-1.729 -3.06,-5.068 -8.25,-9.194 -4.658,-3.592 -13.306,-10.895 -19.427,-16.218 l -11.177,-9.722 -6.249,3.587 c -12.241,7.185 -23.7,14.904 -36.475,24.883 -7.185,5.722 -13.437,10.252 -14.103,10.252 -1.597,0 -27.796,-25.145 -35.248,-33.927 -4.657,-5.322 -6.255,-8.128 -5.324,-9.326 0.666,-0.932 6.507,-8.778 13.028,-17.294 11.709,-15.436 23.429,-34.185 23.429,-37.645 0,-0.931 -3.987,-6.4 -9.043,-11.989 -4.924,-5.589 -11.851,-13.958 -15.444,-18.483 -4.125,-5.322 -7.445,-8.401 -9.175,-8.401 -4.391,0 -25.947,9.053 -44.31,18.766 l -17.445,9.062 -7.967,-10.912 c -11.444,-15.436 -25.83,-37.129 -25.431,-38.061 0.267,-0.531 6.388,-6.392 13.707,-13.045 13.306,-11.976 24.481,-23.544 30.868,-31.793 l 3.341,-4.532 -9.987,-16.897 c -5.455,-9.447 -11.036,-19.295 -12.366,-21.957 -2.129,-4.656 -2.799,-5.059 -7.722,-5.059 -6.919,0 -23.547,3.994 -44.97,10.648 -9.182,2.927 -17.176,5.324 -17.709,5.324 -0.931,0 -16.767,-32.875 -22.089,-45.783 -3.061,-7.584 -3.056,-7.844 -0.661,-9.307 20.758,-12.376 51.892,-34.865 52.957,-38.325 0.533,-1.33 -7.056,-25.954 -13.178,-43.385 -3.459,-9.847 -7.051,-10.361 -38.986,-5.305 -12.108,1.996 -24.615,3.848 -27.941,4.247 l -6.117,0.926 -1.737,-6.382 c -7.585,-26.878 -13.164,-50.422 -12.366,-51.087 0.533,-0.532 7.179,-3.472 14.896,-6.532 13.306,-5.323 39.253,-18.099 44.31,-21.825 2.262,-1.73 2.136,-2.66 -0.925,-19.559 -1.863,-9.846 -3.735,-21.025 -4.267,-24.883 -0.533,-4.525 -1.728,-7.452 -3.058,-8.25 -3.593,-1.863 -29.676,-5.053 -49.503,-6.117 l -18.086,-0.926 -1.604,-15.443 c -2.396,-22.754 -3.593,-42.834 -2.795,-43.365 0.399,-0.133 7.327,-1.746 15.311,-3.343 17.298,-3.459 38.977,-9.698 45.896,-13.291 l 4.796,-2.397 v -25.695 l -0.133,-25.676 -7.985,-3.191 c -8.117,-3.326 -28.871,-8.922 -47.765,-12.913 l -10.516,-2.247 0.793,-15.707 c 0.398,-8.517 1.466,-21.962 2.398,-29.547 l 1.604,-13.971 19.427,-0.792 c 20.225,-0.932 43.772,-3.988 47.897,-6.118 1.73,-1.064 2.805,-4.129 4.003,-13.045 0.931,-6.386 2.784,-17.435 4.247,-24.355 l 2.663,-12.629 -3.72,-3.078 c -4.79,-3.859 -29.55,-15.967 -45.651,-22.221 -6.919,-2.661 -12.76,-5.04 -13.026,-5.173 -0.533,-0.665 3.453,-17.566 9.308,-38.457 5.322,-19.561 5.452,-19.697 8.911,-19.031 14.637,3.193 52.561,6.389 60.678,5.192 l 5.456,-0.68 4.531,-12.894 c 2.528,-7.053 6.384,-17.706 8.779,-23.694 l 4.248,-11.044 -7.307,-6.646 c -6.654,-6.121 -30.875,-23.02 -43.516,-30.339 -4.392,-2.661 -4.914,-3.472 -4.116,-6.532 1.064,-4.258 21.949,-49.497 23.146,-50.295 0.532,-0.266 7.459,1.606 15.576,4.134 15.035,4.791 37.107,10.376 46.688,11.706 l 5.457,0.792 5.719,-10.364 c 3.061,-5.59 8.789,-15.569 12.782,-22.089 l 7.193,-11.857 -3.341,-4.776 c -3.993,-5.988 -19.29,-21.828 -33.927,-35.134 l -11.176,-10.252 6.381,-9.572 c 12.242,-18.762 26.629,-38.325 28.092,-38.325 0.799,0 8.101,3.594 16.218,7.986 12.773,6.919 34.6,16.501 43.649,19.163 2.262,0.665 5.332,-2.409 17.973,-17.313 8.25,-9.98 15.703,-18.891 16.501,-19.955 2.396,-3.46 -10.384,-24.474 -29.678,-48.426 l -7.987,-9.987 10.648,-11.573 c 5.722,-6.388 15.309,-15.842 21.164,-21.164 l 10.497,-9.439 7.325,5.719 c 15.17,11.976 31.675,23.415 40.591,28.339 l 9.176,4.928 13.838,-11.706 c 7.452,-6.387 16.366,-13.839 19.559,-16.5 l 5.985,-4.796 -3.191,-9.855 c -1.73,-5.455 -8.114,-19.684 -14.234,-31.793 -6.121,-11.976 -10.914,-21.957 -10.781,-21.957 0.133,-0.133 3.859,-2.922 8.25,-6.249 4.392,-3.327 15.176,-10.91 23.958,-16.897 l 15.821,-10.912 10.648,11.705 c 12.907,14.238 27.688,28.476 34.474,33.266 l 5.06,3.455 4.908,-2.927 c 2.661,-1.596 12.511,-7.175 21.825,-12.498 16.766,-9.448 17.029,-9.711 17.029,-14.235 -0.134,-9.315 -10.634,-49.381 -15.424,-58.828 l -1.869,-3.72 13.31,-6.664 c 14.104,-7.052 39.654,-18.615 41.119,-18.615 0.531,0 2.385,2.527 4.116,5.72 6.254,10.912 23.82,36.333 30.207,43.385 l 6.513,7.175 13.839,-5.324 c 7.718,-2.927 18.632,-7.048 24.222,-9.044 l 10.384,-3.719 v -13.574 c 0,-7.585 -0.936,-21.159 -2.134,-30.207 -3.326,-24.75 -3.317,-25.156 1.473,-26.62 15.568,-4.657 48.296,-13.046 50.559,-13.046 2.129,0 3.6,2.277 7.193,11.724 5.19,13.707 19.025,42.183 22.618,46.84 l 2.529,3.19 15.821,-2.926 c 8.65,-1.597 19.975,-3.601 25.299,-4.399 l 9.571,-1.604 1.341,-6.117 c 2.129,-9.448 3.844,-25.676 4.909,-45.103 0.797,-16.5 1.076,-17.705 3.738,-18.238 4.257,-0.798 27.799,-3.051 43.101,-4.115 12.641,-0.799 13.575,-0.676 13.575,1.586 0,5.056 9.185,41.533 13.309,52.843 l 4.249,11.573 h 25.826 25.677 l 1.869,-3.606 c 3.592,-6.919 8.902,-25.003 12.894,-43.366 2.129,-10.113 4.003,-18.631 4.003,-19.03 0,-0.799 14.766,0 39.25,2.265 22.621,1.996 20.1,-0.802 21.031,22.75 0.799,18.363 3.592,41.385 5.721,46.707 0.399,1.197 3.056,2.395 6.249,2.927 3.06,0.4 14.369,2.384 25.28,4.248 19.294,3.459 19.697,3.472 21.56,0.944 3.859,-5.19 15.175,-28.35 21.296,-43.385 3.992,-9.98 7.052,-15.708 8.25,-15.708 2.794,0 32.061,7.468 45.367,11.46 9.98,2.928 10.917,3.588 10.251,6.249 -1.596,7.319 -4.526,32.064 -5.324,44.839 -0.932,17.032 0.135,21.284 5.457,23.014 2.13,0.665 12.501,4.523 23.146,8.382 10.512,3.992 19.688,7.193 20.22,7.193 1.996,0 19.301,-22.885 29.546,-39.118 9.182,-14.504 10.92,-16.511 12.649,-15.047 1.198,0.931 13.03,7.054 26.469,13.575 21.024,10.378 24.226,12.388 23.694,14.65 -0.266,1.464 -2.796,9.439 -5.324,17.822 -5.323,16.766 -10.655,40.857 -9.591,43.385 0.267,0.932 5.322,4.245 11.044,7.439 5.722,3.06 15.047,8.527 20.768,12.12 5.721,3.46 11.17,6.381 12.102,6.381 2.927,0 18.498,-13.829 32.736,-28.999 7.585,-8.25 14.232,-14.914 14.764,-14.914 1.33,0 28.214,17.828 38.061,25.279 4.791,3.593 9.189,6.663 9.987,6.929 0.932,0.399 -2.791,9.04 -8.646,20.616 -8.783,17.166 -17.964,39.923 -16.633,40.987 0.265,0.133 7.848,6.519 16.897,14.103 24.749,20.759 21.808,19.03 26.997,16.369 7.851,-3.992 22.759,-13.829 35.399,-23.543 11.444,-8.649 12.514,-9.185 15.708,-7.721 1.995,0.798 11.582,9.168 21.296,18.482 9.847,9.315 18.759,17.047 19.823,17.312 1.064,0.267 2.001,0.659 2.001,1.058 0,0.267 -4.007,5.454 -8.797,11.441 -10.113,12.641 -22.741,31.018 -26.998,39.401 -3.46,6.654 -5.203,3.454 15.821,28.338 11.443,13.705 14.367,16.371 17.029,16.104 5.322,-0.665 22.362,-7.867 40.459,-17.048 15.968,-8.117 17.161,-8.509 19.955,-6.645 3.859,2.661 12.245,13.173 24.487,30.471 l 10.119,14.367 -7.193,6.117 c -13.439,11.975 -30.605,29.008 -35.927,36.06 -6.388,8.25 -7.307,4.94 9.326,33.548 l 10.497,17.955 5.853,-0.397 c 8.117,-0.532 29.54,-5.851 46.972,-11.572 7.85,-2.662 14.516,-4.666 14.782,-4.4 1.065,1.198 10.64,21.288 17.294,36.324 6.785,15.435 7.32,17.437 5.324,18.634 -23.552,14.238 -53.882,36.456 -53.882,39.251 0,0.665 1.331,4.39 2.794,8.25 1.597,3.858 5.454,14.25 8.515,23.033 5.454,15.302 5.842,15.964 10.1,17.029 4.657,1.197 36.323,-0.814 50.295,-3.209 4.125,-0.666 9.048,-1.451 11.044,-1.851 3.593,-0.532 3.735,-0.261 7.061,10.384 4.126,13.838 11.309,42.176 11.309,44.971 0,1.463 -4.797,4.123 -15.575,8.514 -15.17,6.121 -38.309,17.437 -43.499,21.296 -2.262,1.731 -2.405,2.652 -1.208,9.572 0.798,4.257 2.802,15.566 4.399,25.28 2.129,12.108 3.729,17.837 5.06,18.369 5.189,1.997 28.328,4.791 46.424,5.457 l 20.239,0.924 0.661,3.455 c 2.129,10.645 5.597,56.035 4.267,56.035 -0.4,0 -8.133,1.592 -17.049,3.455 -16.766,3.459 -38.714,9.982 -45.235,13.309 l -3.719,1.983 v 25.694 25.809 l 9.308,3.587 c 9.581,3.726 40.858,11.845 51.503,13.442 l 5.984,0.925 -0.944,13.442 c -0.931,15.17 -3.185,38.598 -3.983,42.857 -0.665,2.661 -1.734,2.921 -18.899,3.719 -19.693,1.064 -44.699,4.254 -48.425,6.117 -1.464,0.931 -2.807,4.263 -3.738,10.251 -0.799,5.056 -2.783,16.102 -4.38,24.751 l -2.927,15.839 3.191,2.531 c 1.863,1.33 10.513,5.973 19.295,10.364 13.971,6.92 21.018,9.984 36.853,15.972 l 3.586,1.341 -4.644,17.69 c -4.524,17.83 -9.983,37.262 -10.648,38.061 -0.133,0.266 -2.006,-0.802 -4.135,-2.266 -5.322,-3.992 -15.551,-5.454 -38.438,-5.72 -26.479,-0.266 -25.019,-1.328 -35.531,27.281 -4.258,11.842 -8.115,22.89 -8.515,24.354 -1.064,4.391 1.461,7.704 11.574,15.821 8.516,6.786 38.187,26.48 41.647,27.677 1.73,0.532 -0.534,6.12 -13.442,33.265 -7.584,16.101 -9.046,18.374 -11.441,17.842 -1.597,-0.4 -9.722,-2.928 -18.105,-5.589 -17.964,-5.721 -36.053,-9.854 -42.573,-9.987 -4.391,0 -5.049,0.532 -9.308,8.382 -2.395,4.524 -7.994,14.112 -12.252,21.165 -4.258,7.052 -7.722,13.699 -7.722,14.763 0,2.794 23.702,28.338 36.343,39.383 l 11.441,9.854 -3.059,4.796 c -9.448,14.77 -30.483,44.029 -31.415,43.63 -0.399,-0.133 -11.707,-5.845 -25.279,-12.498 -13.572,-6.786 -27.54,-13.039 -31.132,-13.971 l -6.533,-1.737 -4.776,5.985 c -2.662,3.193 -10.114,11.974 -16.501,19.559 l -11.705,13.575 1.982,4.663 c 2.528,5.988 13.182,21.952 26.356,39.118 l 10.516,13.838 -10.12,10.516 c -12.508,13.04 -30.614,30.472 -31.812,30.472 -0.399,0 -3.974,-2.659 -7.967,-5.853 -11.709,-9.58 -33.002,-24.344 -41.119,-28.602 l -7.722,-4.003 -16.104,13.574 c -8.915,7.452 -17.826,15.034 -19.956,16.897 l -3.87,3.323 3.342,9.459 c 4.657,12.641 11.031,26.735 18.615,40.307 3.327,6.121 6.136,11.851 6.136,12.649 -0.133,0.799 -3.465,3.851 -7.589,6.778 -16.9,11.976 -39.53,27.281 -40.195,27.281 -0.533,0 -6.242,-6.123 -12.762,-13.575 -11.045,-12.374 -34.476,-34.322 -36.871,-34.322 -0.532,0 -6.244,3.183 -12.631,7.042 -6.387,3.859 -16.368,9.588 -22.089,12.781 l -10.384,5.721 0.794,6.117 c 1.33,9.314 6.666,30.342 11.855,46.443 2.662,7.85 4.513,14.365 4.38,14.499 -2.661,2.528 -47.631,23.166 -50.559,23.166 -2.66,0 -6.258,-4.407 -18.633,-22.769 -5.722,-8.516 -13.565,-19.151 -17.69,-23.543 l -7.325,-8.118 -6.91,2.794 c -3.859,1.464 -14.512,5.454 -23.826,8.647 l -16.765,5.985 -0.926,5.852 c -0.932,6.521 -0.132,19.174 2.795,42.46 1.065,8.782 2.133,17.152 2.266,18.483 0.266,2.129 -1.335,3.063 -7.722,5.192 -10.113,3.061 -48.839,13.182 -49.105,12.649 -0.133,-0.265 -3.467,-8.109 -7.325,-17.69 -7.718,-18.762 -16.094,-35.663 -20.617,-41.251 l -2.794,-3.606 -17.294,3.473 c -9.58,1.73 -20.497,3.717 -24.222,4.249 -3.859,0.399 -7.585,1.599 -8.25,2.397 -2.395,2.794 -5.317,25.679 -6.249,47.368 l -0.944,20.9 -16.085,1.586 c -18.363,1.996 -34.739,1.209 -40.327,-1.718 -3.194,-1.597 -4.258,-3.336 -5.589,-9.723 -3.858,-17.165 -8.112,-32.466 -11.705,-41.78 l -3.738,-9.855 -21.957,-0.661 c -29.806,-0.932 -28.859,-1.057 -32.718,7.193 -4.125,9.049 -8.924,26.079 -12.517,44.442 z m 45.933,-142.558 a 708.58395,708.58395 0 0 0 708.582,-708.582 708.58395,708.58395 0 0 0 -708.582,-708.582 708.58395,708.58395 0 0 0 -708.581,708.582 708.58395,708.58395 0 0 0 708.581,708.582 z" /></g><text
       xml:space="preserve"
       transform="matrix(0.26458333,0,0,0.26458333,40.090507,4.1063816)"
       id="text2"
       style="font-weight:bold;font-size:53.3333px;line-height:1.2;font-family:'PT Sans Caption';-inkscape-font-specification:'PT Sans Caption Bold';text-align:justify;letter-spacing:0px;word-spacing:0px;white-space:pre;shape-inside:url(#rect2);fill:#ffffff;stroke-width:1.50425;stroke-linecap:round;stroke-linejoin:round;paint-order:stroke markers fill"><tspan
         x="24.519531"
         y="62.190729"
         id="tspan2">ui</tspan></text></g></svg>
